<?xml version="1.0" encoding="UTF-8" standalone="no"?>
<!DOCTYPE svg PUBLIC "-//W3C//DTD SVG 1.1//EN"
 "http://www.w3.org/Graphics/SVG/1.1/DTD/svg11.dtd">
<!-- Generated by graphviz version 2.38.0 (20140413.2041)
 -->
<!-- Title: %3 Pages: 1 -->
<svg width="570pt" height="193pt"
 viewBox="0.00 0.00 570.00 192.75" xmlns="http://www.w3.org/2000/svg" xmlns:xlink="http://www.w3.org/1999/xlink">
<g id="graph0" class="graph" transform="scale(1 1) rotate(0) translate(4 188.752)">
<title>%3</title>
<polygon fill="white" stroke="none" points="-4,4 -4,-188.752 566,-188.752 566,4 -4,4"/>
<!-- open -->
<g id="node1" class="node"><title>open</title>
<polygon fill="lightgray" stroke="black" points="35,-184.752 0,-184.752 0,-166.752 35,-166.752 35,-184.752"/>
<text text-anchor="middle" x="17.5" y="-173.552" font-family="Times New Roman,serif" font-size="9.00">open</text>
</g>
<!-- high -->
<g id="node2" class="node"><title>high</title>
<polygon fill="lightgray" stroke="black" points="354.5,-184.752 322.5,-184.752 322.5,-166.752 354.5,-166.752 354.5,-184.752"/>
<text text-anchor="middle" x="338.5" y="-173.552" font-family="Times New Roman,serif" font-size="9.00">high</text>
</g>
<!-- 78 -->
<g id="node14" class="node"><title>78</title>
<ellipse fill="white" stroke="black" cx="218.5" cy="-112.368" rx="18.2703" ry="18.2703"/>
<text text-anchor="middle" x="218.5" y="-110.168" font-family="Times New Roman,serif" font-size="9.00">78</text>
</g>
<!-- high&#45;&gt;78 -->
<g id="edge12" class="edge"><title>high&#45;&gt;78</title>
<path fill="none" stroke="red" stroke-width="0.499998" d="M322.387,-167.894C303.587,-159.718 271.733,-145.322 245.5,-130.752 244.376,-130.128 243.235,-129.475 242.09,-128.804"/>
<polygon fill="red" stroke="red" stroke-width="0.499998" points="243.775,-125.731 233.425,-123.468 240.105,-131.692 243.775,-125.731"/>
</g>
<!-- low -->
<g id="node3" class="node"><title>low</title>
<polygon fill="lightgray" stroke="black" points="144.5,-184.752 114.5,-184.752 114.5,-166.752 144.5,-166.752 144.5,-184.752"/>
<text text-anchor="middle" x="129.5" y="-173.552" font-family="Times New Roman,serif" font-size="9.00">low</text>
</g>
<!-- low&#45;&gt;78 -->
<g id="edge13" class="edge"><title>low&#45;&gt;78</title>
<path fill="none" stroke="green" stroke-width="0.215188" d="M141.135,-166.727C154.777,-157.318 177.73,-141.487 195.101,-129.506"/>
<polygon fill="green" stroke="green" stroke-width="0.215188" points="197.352,-132.205 203.597,-123.646 193.378,-126.443 197.352,-132.205"/>
</g>
<!-- close -->
<g id="node4" class="node"><title>close</title>
<polygon fill="lightgray" stroke="black" points="562,-184.752 527,-184.752 527,-166.752 562,-166.752 562,-184.752"/>
<text text-anchor="middle" x="544.5" y="-173.552" font-family="Times New Roman,serif" font-size="9.00">close</text>
</g>
<!-- volume -->
<g id="node5" class="node"><title>volume</title>
<polygon fill="lightgray" stroke="black" points="96,-184.752 53,-184.752 53,-166.752 96,-166.752 96,-184.752"/>
<text text-anchor="middle" x="74.5" y="-173.552" font-family="Times New Roman,serif" font-size="9.00">volume</text>
</g>
<!-- Action -->
<g id="node13" class="node"><title>Action</title>
<ellipse fill="lightblue" stroke="black" cx="354.5" cy="-28.9914" rx="28.9828" ry="28.9828"/>
<text text-anchor="middle" x="354.5" y="-26.7914" font-family="Times New Roman,serif" font-size="9.00">Action</text>
</g>
<!-- volume&#45;&gt;Action -->
<g id="edge10" class="edge"><title>volume&#45;&gt;Action</title>
<path fill="none" stroke="red" stroke-width="1.46736" d="M84.6297,-166.552C104.303,-150.907 149.449,-116.367 191.5,-93.9828 232.844,-71.975 283.46,-53.2803 317.214,-41.8815"/>
<polygon fill="red" stroke="red" stroke-width="1.46736" points="318.738,-45.0632 327.119,-38.5826 316.526,-38.4218 318.738,-45.0632"/>
</g>
<!-- volume&#45;&gt;78 -->
<g id="edge6" class="edge"><title>volume&#45;&gt;78</title>
<path fill="none" stroke="green" stroke-width="0.176141" d="M93.3255,-166.727C118.694,-155.913 163.962,-136.616 192.547,-124.431"/>
<polygon fill="green" stroke="green" stroke-width="0.176141" points="194.076,-127.584 201.902,-120.443 191.331,-121.145 194.076,-127.584"/>
</g>
<!-- momentum_rsi -->
<g id="node6" class="node"><title>momentum_rsi</title>
<polygon fill="lightgray" stroke="black" points="326,-121.368 255,-121.368 255,-103.368 326,-103.368 326,-121.368"/>
<text text-anchor="middle" x="290.5" y="-110.168" font-family="Times New Roman,serif" font-size="9.00">momentum_rsi</text>
</g>
<!-- momentum_rsi&#45;&gt;Action -->
<g id="edge3" class="edge"><title>momentum_rsi&#45;&gt;Action</title>
<path fill="none" stroke="red" stroke-width="0.649017" d="M296.871,-103.267C304.66,-93.3627 318.297,-76.023 330.351,-60.6971"/>
<polygon fill="red" stroke="red" stroke-width="0.649017" points="333.406,-62.4739 336.837,-52.4499 327.904,-58.1466 333.406,-62.4739"/>
</g>
<!-- adx -->
<g id="node7" class="node"><title>adx</title>
<polygon fill="lightgray" stroke="black" points="402,-184.752 373,-184.752 373,-166.752 402,-166.752 402,-184.752"/>
<text text-anchor="middle" x="387.5" y="-173.552" font-family="Times New Roman,serif" font-size="9.00">adx</text>
</g>
<!-- adx&#45;&gt;Action -->
<g id="edge11" class="edge"><title>adx&#45;&gt;Action</title>
<path fill="none" stroke="red" stroke-width="0.616667" d="M384.622,-166.728C381.558,-157.972 376.717,-143.499 373.5,-130.752 368.318,-110.218 363.849,-87.0082 360.549,-68.0443"/>
<polygon fill="red" stroke="red" stroke-width="0.616667" points="363.966,-67.2613 358.839,-57.9896 357.065,-68.4349 363.966,-67.2613"/>
</g>
<!-- adx&#45;&gt;78 -->
<g id="edge2" class="edge"><title>adx&#45;&gt;78</title>
<path fill="none" stroke="green" stroke-width="0.302667" d="M372.796,-169.785C369.729,-168.767 366.513,-167.714 363.5,-166.752 311.265,-150.081 295.245,-153.813 245.5,-130.752 244.333,-130.212 243.158,-129.627 241.985,-129.011"/>
<polygon fill="green" stroke="green" stroke-width="0.302667" points="243.614,-125.91 233.216,-123.879 240.078,-131.951 243.614,-125.91"/>
</g>
<!-- adx_long -->
<g id="node8" class="node"><title>adx_long</title>
<polygon fill="lightgray" stroke="black" points="210.5,-184.752 162.5,-184.752 162.5,-166.752 210.5,-166.752 210.5,-184.752"/>
<text text-anchor="middle" x="186.5" y="-173.552" font-family="Times New Roman,serif" font-size="9.00">adx_long</text>
</g>
<!-- adx_long&#45;&gt;78 -->
<g id="edge14" class="edge"><title>adx_long&#45;&gt;78</title>
<path fill="none" stroke="green" stroke-width="0.582986" d="M190.683,-166.727C194.471,-159.462 200.254,-148.368 205.568,-138.174"/>
<polygon fill="green" stroke="green" stroke-width="0.582986" points="208.727,-139.686 210.246,-129.201 202.52,-136.45 208.727,-139.686"/>
</g>
<!-- adx_pos -->
<g id="node9" class="node"><title>adx_pos</title>
<polygon fill="lightgray" stroke="black" points="430,-121.368 383,-121.368 383,-103.368 430,-103.368 430,-121.368"/>
<text text-anchor="middle" x="406.5" y="-110.168" font-family="Times New Roman,serif" font-size="9.00">adx_pos</text>
</g>
<!-- adx_pos&#45;&gt;Action -->
<g id="edge4" class="edge"><title>adx_pos&#45;&gt;Action</title>
<path fill="none" stroke="green" stroke-width="0.599726" d="M401.324,-103.267C395.225,-93.7233 384.715,-77.2755 375.196,-62.3784"/>
<polygon fill="green" stroke="green" stroke-width="0.599726" points="378.08,-60.3921 369.746,-53.8502 372.181,-64.1614 378.08,-60.3921"/>
</g>
<!-- adx_neg -->
<g id="node10" class="node"><title>adx_neg</title>
<polygon fill="lightgray" stroke="black" points="493,-121.368 448,-121.368 448,-103.368 493,-103.368 493,-121.368"/>
<text text-anchor="middle" x="470.5" y="-110.168" font-family="Times New Roman,serif" font-size="9.00">adx_neg</text>
</g>
<!-- adx_neg&#45;&gt;Action -->
<g id="edge9" class="edge"><title>adx_neg&#45;&gt;Action</title>
<path fill="none" stroke="green" stroke-width="0.186065" d="M458.953,-103.267C442.213,-91.5235 410.572,-69.3268 386.483,-52.4282"/>
<polygon fill="green" stroke="green" stroke-width="0.186065" points="388.188,-49.349 377.992,-46.4713 384.168,-55.0796 388.188,-49.349"/>
</g>
<!-- trend_ema_fast -->
<g id="node11" class="node"><title>trend_ema_fast</title>
<polygon fill="lightgray" stroke="black" points="508.5,-184.752 436.5,-184.752 436.5,-166.752 508.5,-166.752 508.5,-184.752"/>
<text text-anchor="middle" x="472.5" y="-173.552" font-family="Times New Roman,serif" font-size="9.00">trend_ema_fast</text>
</g>
<!-- trend_ema_fast&#45;&gt;Action -->
<g id="edge8" class="edge"><title>trend_ema_fast&#45;&gt;Action</title>
<path fill="none" stroke="green" stroke-width="0.471972" d="M479.971,-166.618C493.027,-151.379 517.179,-117.909 501.5,-93.9828 477.686,-57.6438 428.262,-41.8286 393.311,-35.0191"/>
<polygon fill="green" stroke="green" stroke-width="0.471972" points="393.882,-31.5657 383.423,-33.2547 392.652,-38.4569 393.882,-31.5657"/>
</g>
<!-- trend_ema_fast&#45;&gt;78 -->
<g id="edge1" class="edge"><title>trend_ema_fast&#45;&gt;78</title>
<path fill="none" stroke="red" stroke-width="0.434621" d="M436.417,-169.466C381.492,-161.131 279.68,-144.474 245.5,-130.752 244.278,-130.262 243.051,-129.713 241.831,-129.123"/>
<polygon fill="red" stroke="red" stroke-width="0.434621" points="243.227,-125.89 232.801,-124.003 239.774,-131.98 243.227,-125.89"/>
</g>
<!-- trend_ema_slow -->
<g id="node12" class="node"><title>trend_ema_slow</title>
<polygon fill="lightgray" stroke="black" points="304.5,-184.752 228.5,-184.752 228.5,-166.752 304.5,-166.752 304.5,-184.752"/>
<text text-anchor="middle" x="266.5" y="-173.552" font-family="Times New Roman,serif" font-size="9.00">trend_ema_slow</text>
</g>
<!-- trend_ema_slow&#45;&gt;78 -->
<g id="edge5" class="edge"><title>trend_ema_slow&#45;&gt;78</title>
<path fill="none" stroke="green" stroke-width="0.770626" d="M260.225,-166.727C253.988,-158.751 244.142,-146.16 235.581,-135.212"/>
<polygon fill="green" stroke="green" stroke-width="0.770626" points="238.283,-132.985 229.366,-127.263 232.768,-137.297 238.283,-132.985"/>
</g>
<!-- 78&#45;&gt;Action -->
<g id="edge7" class="edge"><title>78&#45;&gt;Action</title>
<path fill="none" stroke="red" stroke-width="0.231492" d="M233.567,-101.511C237.437,-99.0224 241.606,-96.378 245.5,-93.9828 270.522,-78.5911 299.183,-61.7974 320.833,-49.2774"/>
<polygon fill="red" stroke="red" stroke-width="0.231492" points="322.739,-52.2187 329.652,-44.1899 319.241,-46.1554 322.739,-52.2187"/>
</g>
</g>
</svg>
