<?xml version="1.0" encoding="UTF-8" standalone="no"?>
<!DOCTYPE svg PUBLIC "-//W3C//DTD SVG 1.1//EN"
 "http://www.w3.org/Graphics/SVG/1.1/DTD/svg11.dtd">
<!-- Generated by graphviz version 2.38.0 (20140413.2041)
 -->
<!-- Title: %3 Pages: 1 -->
<svg width="538pt" height="266pt"
 viewBox="0.00 0.00 538.39 265.52" xmlns="http://www.w3.org/2000/svg" xmlns:xlink="http://www.w3.org/1999/xlink">
<g id="graph0" class="graph" transform="scale(1 1) rotate(0) translate(4 261.522)">
<title>%3</title>
<polygon fill="white" stroke="none" points="-4,4 -4,-261.522 534.392,-261.522 534.392,4 -4,4"/>
<!-- Open -->
<g id="node1" class="node"><title>Open</title>
<polygon fill="lightgray" stroke="black" points="114.5,-257.522 77.5,-257.522 77.5,-239.522 114.5,-239.522 114.5,-257.522"/>
<text text-anchor="middle" x="96" y="-246.322" font-family="Times New Roman,serif" font-size="9.00">Open</text>
</g>
<!-- Action -->
<g id="node6" class="node"><title>Action</title>
<ellipse fill="lightblue" stroke="black" cx="169" cy="-28.9914" rx="28.9828" ry="28.9828"/>
<text text-anchor="middle" x="169" y="-26.7914" font-family="Times New Roman,serif" font-size="9.00">Action</text>
</g>
<!-- Open&#45;&gt;Action -->
<g id="edge31" class="edge"><title>Open&#45;&gt;Action</title>
<path fill="none" stroke="green" stroke-width="0.205499" d="M78.7802,-239.424C65.4661,-232.114 47.9992,-219.98 40,-203.522 29.6459,-182.219 44.8741,-101.364 50,-93.9828 69.1857,-66.3555 104.213,-49.6011 131.317,-40.207"/>
<polygon fill="green" stroke="green" stroke-width="0.205499" points="132.483,-43.5079 140.9,-37.0725 130.307,-36.8548 132.483,-43.5079"/>
</g>
<!-- 6 -->
<g id="node7" class="node"><title>6</title>
<ellipse fill="white" stroke="black" cx="215" cy="-185.137" rx="14.7" ry="14.7"/>
<text text-anchor="middle" x="215" y="-182.937" font-family="Times New Roman,serif" font-size="9.00">6</text>
</g>
<!-- Open&#45;&gt;6 -->
<g id="edge1" class="edge"><title>Open&#45;&gt;6</title>
<path fill="none" stroke="red" stroke-width="0.271399" d="M113.476,-239.519C131.775,-231.014 161.238,-216.965 186,-203.522 188.612,-202.104 191.324,-200.567 193.996,-199.014"/>
<polygon fill="red" stroke="red" stroke-width="0.271399" points="195.917,-201.943 202.716,-193.817 192.334,-195.93 195.917,-201.943"/>
</g>
<!-- 7 -->
<g id="node8" class="node"><title>7</title>
<ellipse fill="white" stroke="black" cx="281" cy="-185.137" rx="14.7" ry="14.7"/>
<text text-anchor="middle" x="281" y="-182.937" font-family="Times New Roman,serif" font-size="9.00">7</text>
</g>
<!-- Open&#45;&gt;7 -->
<g id="edge2" class="edge"><title>Open&#45;&gt;7</title>
<path fill="none" stroke="red" stroke-width="0.286249" d="M114.628,-244.675C145.429,-239.485 208.395,-226.811 257,-203.522 258.392,-202.855 259.787,-202.106 261.166,-201.302"/>
<polygon fill="red" stroke="red" stroke-width="0.286249" points="263.446,-203.988 269.814,-195.52 259.555,-198.169 263.446,-203.988"/>
</g>
<!-- 8 -->
<g id="node9" class="node"><title>8</title>
<ellipse fill="white" stroke="black" cx="73" cy="-185.137" rx="14.7" ry="14.7"/>
<text text-anchor="middle" x="73" y="-182.937" font-family="Times New Roman,serif" font-size="9.00">8</text>
</g>
<!-- Open&#45;&gt;8 -->
<g id="edge3" class="edge"><title>Open&#45;&gt;8</title>
<path fill="none" stroke="green" stroke-width="0.135534" d="M92.9932,-239.497C90.1141,-231.813 85.6306,-219.847 81.6383,-209.192"/>
<polygon fill="green" stroke="green" stroke-width="0.135534" points="84.8159,-207.697 78.0297,-199.561 78.2609,-210.153 84.8159,-207.697"/>
</g>
<!-- 9 -->
<g id="node10" class="node"><title>9</title>
<ellipse fill="white" stroke="black" cx="134" cy="-112.368" rx="14.7" ry="14.7"/>
<text text-anchor="middle" x="134" y="-110.168" font-family="Times New Roman,serif" font-size="9.00">9</text>
</g>
<!-- Open&#45;&gt;9 -->
<g id="edge4" class="edge"><title>Open&#45;&gt;9</title>
<path fill="none" stroke="green" stroke-width="0.402788" d="M82.3786,-239.354C71.0613,-231.698 55.7594,-219.109 49,-203.522 42.4983,-188.529 41.0936,-181.054 49,-166.752 61.9822,-143.268 90.1001,-128.721 110.448,-120.856"/>
<polygon fill="green" stroke="green" stroke-width="0.402788" points="111.758,-124.105 119.986,-117.431 109.392,-117.517 111.758,-124.105"/>
</g>
<!-- 10 -->
<g id="node11" class="node"><title>10</title>
<ellipse fill="white" stroke="black" cx="380" cy="-112.368" rx="18.2703" ry="18.2703"/>
<text text-anchor="middle" x="380" y="-110.168" font-family="Times New Roman,serif" font-size="9.00">10</text>
</g>
<!-- Open&#45;&gt;10 -->
<g id="edge5" class="edge"><title>Open&#45;&gt;10</title>
<path fill="none" stroke="red" stroke-width="0.149248" d="M103.497,-239.082C118.494,-222.71 153.943,-186.516 191,-166.752 244.074,-138.446 313.753,-123.801 351.947,-117.431"/>
<polygon fill="red" stroke="red" stroke-width="0.149248" points="352.522,-120.884 361.844,-115.849 351.417,-113.971 352.522,-120.884"/>
</g>
<!-- High -->
<g id="node2" class="node"><title>High</title>
<polygon fill="lightgray" stroke="black" points="34,-257.522 0,-257.522 0,-239.522 34,-239.522 34,-257.522"/>
<text text-anchor="middle" x="17" y="-246.322" font-family="Times New Roman,serif" font-size="9.00">High</text>
</g>
<!-- High&#45;&gt;Action -->
<g id="edge32" class="edge"><title>High&#45;&gt;Action</title>
<path fill="none" stroke="red" stroke-width="0.165376" d="M15.4716,-239.406C11.2784,-214.531 2.16006,-138.353 38,-93.9828 61.5061,-64.8819 101.533,-48.0539 131.17,-39.0272"/>
<polygon fill="red" stroke="red" stroke-width="0.165376" points="132.143,-42.3893 140.784,-36.2586 130.206,-35.6627 132.143,-42.3893"/>
</g>
<!-- High&#45;&gt;6 -->
<g id="edge6" class="edge"><title>High&#45;&gt;6</title>
<path fill="none" stroke="green" stroke-width="0.338547" d="M34.2248,-242.182C69.7112,-231.18 151.015,-205.974 191.376,-193.461"/>
<polygon fill="green" stroke="green" stroke-width="0.338547" points="192.413,-196.804 200.928,-190.5 190.34,-190.118 192.413,-196.804"/>
</g>
<!-- High&#45;&gt;7 -->
<g id="edge7" class="edge"><title>High&#45;&gt;7</title>
<path fill="none" stroke="red" stroke-width="0.153672" d="M34.0029,-244.852C85.3141,-236.731 236.357,-212.35 257,-203.522 258.419,-202.915 259.835,-202.212 261.23,-201.443"/>
<polygon fill="red" stroke="red" stroke-width="0.153672" points="263.473,-204.157 269.916,-195.745 259.634,-198.303 263.473,-204.157"/>
</g>
<!-- High&#45;&gt;8 -->
<g id="edge8" class="edge"><title>High&#45;&gt;8</title>
<path fill="none" stroke="red" stroke-width="0.165619" d="M24.321,-239.497C32.4148,-230.625 45.717,-216.044 56.3722,-204.364"/>
<polygon fill="red" stroke="red" stroke-width="0.165619" points="59.0756,-206.594 63.2295,-196.847 53.9042,-201.876 59.0756,-206.594"/>
</g>
<!-- High&#45;&gt;9 -->
<g id="edge9" class="edge"><title>High&#45;&gt;9</title>
<path fill="none" stroke="green" stroke-width="0.131023" d="M17.3192,-239.518C18.3283,-223.911 22.5274,-188.995 40,-166.752 58.0332,-143.796 88.8555,-129.027 110.268,-120.972"/>
<polygon fill="green" stroke="green" stroke-width="0.131023" points="111.669,-124.189 119.926,-117.55 109.332,-117.591 111.669,-124.189"/>
</g>
<!-- High&#45;&gt;10 -->
<g id="edge10" class="edge"><title>High&#45;&gt;10</title>
<path fill="none" stroke="red" stroke-width="0.339893" d="M17.6514,-239.342C19.4387,-222.776 25.9526,-185.266 49,-166.752 72.5186,-147.86 275,-124.558 351.18,-116.377"/>
<polygon fill="red" stroke="red" stroke-width="0.339893" points="351.894,-119.821 361.467,-115.282 351.153,-112.86 351.894,-119.821"/>
</g>
<!-- Low -->
<g id="node3" class="node"><title>Low</title>
<polygon fill="lightgray" stroke="black" points="358.5,-257.522 325.5,-257.522 325.5,-239.522 358.5,-239.522 358.5,-257.522"/>
<text text-anchor="middle" x="342" y="-246.322" font-family="Times New Roman,serif" font-size="9.00">Low</text>
</g>
<!-- Low&#45;&gt;Action -->
<g id="edge33" class="edge"><title>Low&#45;&gt;Action</title>
<path fill="none" stroke="red" stroke-width="0.100503" d="M358.749,-245.105C394.217,-239.609 474.974,-224.965 491,-203.522 500.783,-190.432 496.884,-181.998 491,-166.752 448.445,-56.4887 284.528,-34.8345 208.343,-30.7903"/>
<polygon fill="red" stroke="red" stroke-width="0.100503" points="208.346,-27.2869 198.197,-30.3291 208.028,-34.2797 208.346,-27.2869"/>
</g>
<!-- Low&#45;&gt;6 -->
<g id="edge11" class="edge"><title>Low&#45;&gt;6</title>
<path fill="none" stroke="green" stroke-width="0.127123" stroke-dasharray="1,5" d="M325.397,-239.497C302.841,-228.595 262.449,-209.072 237.277,-196.905"/>
<polygon fill="green" stroke="green" stroke-width="0.127123" points="238.662,-193.687 228.135,-192.486 235.615,-199.989 238.662,-193.687"/>
</g>
<!-- Low&#45;&gt;7 -->
<g id="edge12" class="edge"><title>Low&#45;&gt;7</title>
<path fill="none" stroke="green" stroke-width="0.222562" d="M334.025,-239.497C325.018,-230.433 310.089,-215.41 298.363,-203.61"/>
<polygon fill="green" stroke="green" stroke-width="0.222562" points="300.746,-201.042 291.214,-196.416 295.781,-205.976 300.746,-201.042"/>
</g>
<!-- Low&#45;&gt;8 -->
<g id="edge13" class="edge"><title>Low&#45;&gt;8</title>
<path fill="none" stroke="red" stroke-width="0.191165" d="M325.173,-243.682C279.224,-233.197 151.464,-204.042 97.5275,-191.734"/>
<polygon fill="red" stroke="red" stroke-width="0.191165" points="98.01,-188.254 87.482,-189.442 96.4526,-195.079 98.01,-188.254"/>
</g>
<!-- Low&#45;&gt;9 -->
<g id="edge14" class="edge"><title>Low&#45;&gt;9</title>
<path fill="none" stroke="green" stroke-width="0.435681" d="M342.596,-239.157C343.269,-222.918 342.319,-186.946 323,-166.752 279.278,-121.052 199.688,-113.551 159.163,-112.886"/>
<polygon fill="green" stroke="green" stroke-width="0.435681" points="159.072,-109.385 149.06,-112.851 159.047,-116.385 159.072,-109.385"/>
</g>
<!-- Low&#45;&gt;10 -->
<g id="edge15" class="edge"><title>Low&#45;&gt;10</title>
<path fill="none" stroke="green" stroke-width="0.36897" d="M357.524,-239.415C369.966,-231.955 386.536,-219.614 394,-203.522 403.547,-182.938 398.025,-157.16 391.31,-138.447"/>
<polygon fill="green" stroke="green" stroke-width="0.36897" points="394.56,-137.148 387.654,-129.113 388.042,-139.701 394.56,-137.148"/>
</g>
<!-- 17 -->
<g id="node12" class="node"><title>17</title>
<ellipse fill="white" stroke="black" cx="464" cy="-185.137" rx="18.2703" ry="18.2703"/>
<text text-anchor="middle" x="464" y="-182.937" font-family="Times New Roman,serif" font-size="9.00">17</text>
</g>
<!-- Low&#45;&gt;17 -->
<g id="edge42" class="edge"><title>Low&#45;&gt;17</title>
<path fill="none" stroke="green" stroke-width="0.476011" d="M358.694,-239.624C376.844,-230.977 406.65,-216.597 432,-203.522 434.311,-202.33 436.705,-201.072 439.096,-199.801"/>
<polygon fill="green" stroke="green" stroke-width="0.476011" points="440.977,-202.763 448.12,-194.939 437.657,-196.601 440.977,-202.763"/>
</g>
<!-- Close -->
<g id="node4" class="node"><title>Close</title>
<polygon fill="lightgray" stroke="black" points="192.5,-257.522 155.5,-257.522 155.5,-239.522 192.5,-239.522 192.5,-257.522"/>
<text text-anchor="middle" x="174" y="-246.322" font-family="Times New Roman,serif" font-size="9.00">Close</text>
</g>
<!-- Close&#45;&gt;Action -->
<g id="edge34" class="edge"><title>Close&#45;&gt;Action</title>
<path fill="none" stroke="green" stroke-width="0.106642" d="M155.377,-243.704C123.709,-236.792 61.5646,-221.265 49,-203.522 10.1407,-148.647 88.718,-83.2405 136.289,-50.6239"/>
<polygon fill="green" stroke="green" stroke-width="0.106642" points="138.425,-53.4057 144.776,-44.9252 134.523,-47.5944 138.425,-53.4057"/>
</g>
<!-- Close&#45;&gt;6 -->
<g id="edge16" class="edge"><title>Close&#45;&gt;6</title>
<path fill="none" stroke="red" stroke-width="0.257251" d="M179.36,-239.497C184.909,-231.189 193.803,-217.873 201.317,-206.623"/>
<polygon fill="red" stroke="red" stroke-width="0.257251" points="204.314,-208.437 206.958,-198.178 198.493,-204.55 204.314,-208.437"/>
</g>
<!-- Close&#45;&gt;7 -->
<g id="edge17" class="edge"><title>Close&#45;&gt;7</title>
<path fill="none" stroke="red" stroke-width="0.430233" d="M190.918,-239.421C207.967,-231.058 234.852,-217.321 257,-203.522 258.31,-202.706 259.643,-201.842 260.974,-200.953"/>
<polygon fill="red" stroke="red" stroke-width="0.430233" points="263.335,-203.572 269.506,-194.961 259.312,-197.844 263.335,-203.572"/>
</g>
<!-- Close&#45;&gt;8 -->
<g id="edge18" class="edge"><title>Close&#45;&gt;8</title>
<path fill="none" stroke="red" stroke-width="0.241024" d="M160.796,-239.497C143.809,-229.173 114.101,-211.117 93.9981,-198.899"/>
<polygon fill="red" stroke="red" stroke-width="0.241024" points="95.6217,-195.79 85.2584,-193.587 91.9861,-201.772 95.6217,-195.79"/>
</g>
<!-- Close&#45;&gt;9 -->
<g id="edge19" class="edge"><title>Close&#45;&gt;9</title>
<path fill="none" stroke="green" stroke-width="0.309605" d="M171.498,-239.13C165.47,-218.913 149.972,-166.936 140.899,-136.505"/>
<polygon fill="green" stroke="green" stroke-width="0.309605" points="144.195,-135.31 137.983,-126.727 137.487,-137.31 144.195,-135.31"/>
</g>
<!-- Close&#45;&gt;10 -->
<g id="edge20" class="edge"><title>Close&#45;&gt;10</title>
<path fill="none" stroke="red" stroke-width="0.121448" d="M192.839,-246.187C223.104,-243.186 283.188,-233.604 323,-203.522 344.838,-187.021 360.461,-159.519 369.765,-139.221"/>
<polygon fill="red" stroke="red" stroke-width="0.121448" points="373.034,-140.481 373.825,-129.915 366.618,-137.682 373.034,-140.481"/>
</g>
<!-- Volume -->
<g id="node5" class="node"><title>Volume</title>
<polygon fill="lightgray" stroke="black" points="486,-257.522 442,-257.522 442,-239.522 486,-239.522 486,-257.522"/>
<text text-anchor="middle" x="464" y="-246.322" font-family="Times New Roman,serif" font-size="9.00">Volume</text>
</g>
<!-- Volume&#45;&gt;Action -->
<g id="edge35" class="edge"><title>Volume&#45;&gt;Action</title>
<path fill="none" stroke="red" stroke-width="0.26521" d="M476.083,-239.387C486.493,-231.583 500.793,-218.754 507,-203.522 526.737,-155.088 506.403,-124.599 464,-93.9828 423.384,-64.6571 278.901,-43.4429 208.343,-34.5806"/>
<polygon fill="red" stroke="red" stroke-width="0.26521" points="208.439,-31.066 198.086,-33.314 207.581,-38.0132 208.439,-31.066"/>
</g>
<!-- Volume&#45;&gt;6 -->
<g id="edge21" class="edge"><title>Volume&#45;&gt;6</title>
<path fill="none" stroke="red" stroke-width="0.544205" d="M441.907,-244.192C403.682,-238.129 322.968,-223.997 257,-203.522 250.723,-201.574 244.085,-199.053 237.986,-196.539"/>
<polygon fill="red" stroke="red" stroke-width="0.544205" points="238.957,-193.147 228.387,-192.416 236.194,-199.579 238.957,-193.147"/>
</g>
<!-- Volume&#45;&gt;7 -->
<g id="edge22" class="edge"><title>Volume&#45;&gt;7</title>
<path fill="none" stroke="green" stroke-width="0.50945" d="M441.926,-240.117C407.144,-228.45 339.893,-205.892 304.34,-193.966"/>
<polygon fill="green" stroke="green" stroke-width="0.50945" points="305.394,-190.628 294.8,-190.766 303.168,-197.265 305.394,-190.628"/>
</g>
<!-- Volume&#45;&gt;8 -->
<g id="edge23" class="edge"><title>Volume&#45;&gt;8</title>
<path fill="none" stroke="red" stroke-width="0.218088" d="M441.858,-244.046C374.079,-233.405 169.699,-201.318 98.1039,-190.078"/>
<polygon fill="red" stroke="red" stroke-width="0.218088" points="98.2166,-186.553 87.7947,-188.46 97.1308,-193.468 98.2166,-186.553"/>
</g>
<!-- Volume&#45;&gt;9 -->
<g id="edge24" class="edge"><title>Volume&#45;&gt;9</title>
<path fill="none" stroke="red" stroke-width="0.173266" d="M471.278,-239.428C484.563,-223.662 509.722,-188.483 491,-166.752 469.264,-141.525 237.529,-121.388 159.486,-115.279"/>
<polygon fill="red" stroke="red" stroke-width="0.173266" points="159.37,-111.76 149.13,-114.481 158.832,-118.739 159.37,-111.76"/>
</g>
<!-- Volume&#45;&gt;10 -->
<g id="edge25" class="edge"><title>Volume&#45;&gt;10</title>
<path fill="none" stroke="green" stroke-width="0.201975" d="M482.992,-239.45C497.159,-232.29 515.475,-220.345 524,-203.522 531.387,-188.945 533.334,-180.167 524,-166.752 498.03,-129.427 442.754,-118.14 408.744,-114.765"/>
<polygon fill="green" stroke="green" stroke-width="0.201975" points="408.767,-111.255 398.513,-113.923 408.193,-118.231 408.767,-111.255"/>
</g>
<!-- Volume&#45;&gt;17 -->
<g id="edge45" class="edge"><title>Volume&#45;&gt;17</title>
<path fill="none" stroke="green" stroke-width="0.257162" d="M464,-239.497C464,-232.933 464,-223.243 464,-213.916"/>
<polygon fill="green" stroke="green" stroke-width="0.257162" points="467.5,-213.725 464,-203.725 460.5,-213.725 467.5,-213.725"/>
</g>
<!-- Action&#45;&gt;Action -->
<g id="edge36" class="edge"><title>Action&#45;&gt;Action</title>
<path fill="none" stroke="green" stroke-width="0.288238" d="M194.14,-44.0623C205.802,-45.7064 215.991,-40.6828 215.991,-28.9914 215.991,-20.9535 211.175,-16.0673 204.376,-14.3325"/>
<polygon fill="green" stroke="green" stroke-width="0.288238" points="204.272,-10.8256 194.14,-13.9204 203.991,-17.82 204.272,-10.8256"/>
</g>
<!-- 6&#45;&gt;Action -->
<g id="edge26" class="edge"><title>6&#45;&gt;Action</title>
<path fill="none" stroke="green" stroke-width="0.388259" d="M210.998,-170.727C204.164,-147.826 190.015,-100.414 180.034,-66.966"/>
<polygon fill="green" stroke="green" stroke-width="0.388259" points="183.296,-65.6581 177.083,-57.0766 176.589,-67.6599 183.296,-65.6581"/>
</g>
<!-- 6&#45;&gt;6 -->
<g id="edge37" class="edge"><title>6&#45;&gt;6</title>
<path fill="none" stroke="red" stroke-width="0.324736" d="M226.447,-194.693C236.781,-199.342 247.849,-196.157 247.849,-185.137 247.849,-177.733 242.853,-173.866 236.439,-173.535"/>
<polygon fill="red" stroke="red" stroke-width="0.324736" points="235.542,-170.146 226.447,-175.581 236.946,-177.004 235.542,-170.146"/>
</g>
<!-- 7&#45;&gt;Action -->
<g id="edge27" class="edge"><title>7&#45;&gt;Action</title>
<path fill="none" stroke="green" stroke-width="0.29193" d="M272.582,-172.551C255.605,-149.185 216.753,-95.7144 191.755,-61.3097"/>
<polygon fill="green" stroke="green" stroke-width="0.29193" points="194.43,-59.0362 185.72,-53.0035 188.767,-63.1508 194.43,-59.0362"/>
</g>
<!-- 7&#45;&gt;7 -->
<g id="edge38" class="edge"><title>7&#45;&gt;7</title>
<path fill="none" stroke="red" stroke-width="0.202949" d="M292.447,-194.693C302.781,-199.342 313.849,-196.157 313.849,-185.137 313.849,-177.733 308.853,-173.866 302.439,-173.535"/>
<polygon fill="red" stroke="red" stroke-width="0.202949" points="301.542,-170.146 292.447,-175.581 302.946,-177.004 301.542,-170.146"/>
</g>
<!-- 8&#45;&gt;Action -->
<g id="edge28" class="edge"><title>8&#45;&gt;Action</title>
<path fill="none" stroke="red" stroke-width="0.55945" d="M76.895,-170.585C82.5137,-152.292 94.0032,-119.098 110,-93.9828 118.575,-80.5206 130.118,-67.2736 140.72,-56.3561"/>
<polygon fill="red" stroke="red" stroke-width="0.55945" points="143.277,-58.7479 147.861,-49.1959 138.321,-53.8046 143.277,-58.7479"/>
</g>
<!-- 8&#45;&gt;8 -->
<g id="edge39" class="edge"><title>8&#45;&gt;8</title>
<path fill="none" stroke="red" stroke-width="0.167585" d="M84.4469,-194.693C94.7805,-199.342 105.849,-196.157 105.849,-185.137 105.849,-177.733 100.853,-173.866 94.4395,-173.535"/>
<polygon fill="red" stroke="red" stroke-width="0.167585" points="93.5416,-170.146 84.4469,-175.581 94.9457,-177.004 93.5416,-170.146"/>
</g>
<!-- 8&#45;&gt;9 -->
<g id="edge44" class="edge"><title>8&#45;&gt;9</title>
<path fill="none" stroke="green" stroke-width="0.123137" d="M82.2646,-173.389C91.7592,-162.373 106.704,-145.035 118.095,-131.819"/>
<polygon fill="green" stroke="green" stroke-width="0.123137" points="120.77,-134.077 124.648,-124.217 115.468,-129.506 120.77,-134.077"/>
</g>
<!-- 9&#45;&gt;Action -->
<g id="edge29" class="edge"><title>9&#45;&gt;Action</title>
<path fill="none" stroke="green" stroke-width="0.140372" d="M139.623,-98.293C143.496,-89.2885 148.838,-76.8676 153.906,-65.0847"/>
<polygon fill="green" stroke="green" stroke-width="0.140372" points="157.143,-66.4186 157.878,-55.8494 150.712,-63.6528 157.143,-66.4186"/>
</g>
<!-- 9&#45;&gt;9 -->
<g id="edge40" class="edge"><title>9&#45;&gt;9</title>
<path fill="none" stroke="green" stroke-width="0.17626" d="M144.767,-123.096C155.289,-129.022 166.849,-125.446 166.849,-112.368 166.849,-103.376 161.385,-98.8763 154.551,-98.8675"/>
<polygon fill="green" stroke="green" stroke-width="0.17626" points="153.434,-95.5461 144.767,-101.639 155.342,-102.281 153.434,-95.5461"/>
</g>
<!-- 10&#45;&gt;Action -->
<g id="edge30" class="edge"><title>10&#45;&gt;Action</title>
<path fill="none" stroke="red" stroke-width="0.218884" d="M363.09,-104.846C329.016,-91.7044 251.431,-61.7823 205.337,-44.0052"/>
<polygon fill="red" stroke="red" stroke-width="0.218884" points="206.318,-40.6325 195.728,-40.2997 203.799,-47.1636 206.318,-40.6325"/>
</g>
<!-- 10&#45;&gt;10 -->
<g id="edge41" class="edge"><title>10&#45;&gt;10</title>
<path fill="none" stroke="red" stroke-width="0.358786" d="M394.192,-124.124C405.179,-128.521 416.385,-124.602 416.385,-112.368 416.385,-103.956 411.088,-99.4757 404.208,-98.9253"/>
<polygon fill="red" stroke="red" stroke-width="0.358786" points="403.472,-95.4998 394.192,-100.611 404.634,-102.403 403.472,-95.4998"/>
</g>
<!-- 17&#45;&gt;10 -->
<g id="edge43" class="edge"><title>17&#45;&gt;10</title>
<path fill="none" stroke="green" stroke-width="0.41172" d="M450.129,-172.451C436.918,-161.321 416.836,-144.402 401.543,-131.517"/>
<polygon fill="green" stroke="green" stroke-width="0.41172" points="403.516,-128.603 393.613,-124.836 399.005,-133.956 403.516,-128.603"/>
</g>
</g>
</svg>
